# xmcd
#
# Track frame offsets:
#	150
#	4600
#	22745
#	47221
#	62425
#	79327
#	97049
#	115203
#	118866
#	140019
#	157891
#	173388
#	180736
#	200057
#	217842
#	236196
#	261055
#	284336
#
# Disc length: 3989 seconds
#
# Revision: 0
# Processed by: cddbd v1.5.1PL0 Copyright (c) Steve Scherf et al.
# Submitted via: dBpowerAMP V4.0
#
DISCID=f50f9312
DTITLE=112 - Pleasure and Pain
DYEAR=2004
DGENRE=R&B
TTITLE0=Intro
TTITLE1=Let This Go
TTITLE2=What If
TTITLE3=U Already Know
TTITLE4=Damn
TTITLE5=Nowhere
TTITLE6=Last To Know
TTITLE7=I'm Sorry (Interlude)
TTITLE8=My Mistakes
TTITLE9=If I Hit
TTITLE10=The Way
TTITLE11=We Goin' Be Alright
TTITLE12=Why Can't We Get Along
TTITLE13=That's How Close We Are
TTITLE14=Closing The Club
TTITLE15=What The Hell Do You Want
TTITLE16=God Knows
TTITLE17=U Already Know
EXTD=
EXTT0=
EXTT1=
EXTT2=
EXTT3=
EXTT4=
EXTT5=
EXTT6=
EXTT7=
EXTT8=
EXTT9=
EXTT10=
EXTT11=
EXTT12=
EXTT13=
EXTT14=
EXTT15=
EXTT16=
EXTT17=
PLAYORDER=
